<svg width="255" height="47" viewBox="0 0 255 47" fill="none" xmlns="http://www.w3.org/2000/svg">
<path d="M1.06821 29.9091C0.478578 29.9091 0 29.4305 0 28.8409V18.159C0 17.5694 0.478578 17.0908 1.06821 17.0908C1.65785 17.0908 2.13643 17.5694 2.13643 18.159V28.8409C2.13633 29.4305 1.65785 29.9091 1.06821 29.9091Z" fill="#F44336"/>
<path d="M7.47733 38.4545C6.8877 38.4545 6.40912 37.9759 6.40912 37.3863V9.61362C6.40912 9.02399 6.8877 8.54541 7.47733 8.54541C8.06697 8.54541 8.54545 9.02399 8.54545 9.61362V37.3863C8.54545 37.9759 8.06697 38.4545 7.47733 38.4545Z" fill="#F44336"/>
<path d="M13.8864 46.9999C13.2968 46.9999 12.8182 46.5213 12.8182 45.9317V1.06812C12.8182 0.478582 13.2968 3.8147e-06 13.8864 3.8147e-06C14.4761 3.8147e-06 14.9547 0.478582 14.9547 1.06822V45.9318C14.9546 46.5214 14.4761 46.9999 13.8864 46.9999Z" fill="#F44336"/>
<path d="M20.2954 44.8636C19.7058 44.8636 19.2272 44.385 19.2272 43.7954V3.20454C19.2272 2.61491 19.7058 2.13633 20.2954 2.13633C20.8851 2.13633 21.3635 2.61491 21.3635 3.20454V43.7954C21.3635 44.385 20.8851 44.8636 20.2954 44.8636Z" fill="#F44336"/>
<path d="M26.7045 36.3182C26.1149 36.3182 25.6363 35.8396 25.6363 35.25V11.75C25.6363 11.1603 26.1149 10.6817 26.7045 10.6817C27.2942 10.6817 27.7728 11.1603 27.7728 11.75V35.25C27.7727 35.8396 27.2942 36.3182 26.7045 36.3182Z" fill="#F44336"/>
<path d="M33.1137 44.8636C32.524 44.8636 32.0454 44.385 32.0454 43.7954V3.20454C32.0454 2.61491 32.524 2.13633 33.1137 2.13633C33.7033 2.13633 34.1819 2.61491 34.1819 3.20454V43.7954C34.1818 44.385 33.7033 44.8636 33.1137 44.8636Z" fill="#F44336"/>
<path d="M39.5228 36.3182C38.9331 36.3182 38.4546 35.8396 38.4546 35.25V11.75C38.4546 11.1603 38.9331 10.6817 39.5228 10.6817C40.1124 10.6817 40.591 11.1603 40.591 11.75V35.25C40.5909 35.8396 40.1124 36.3182 39.5228 36.3182Z" fill="#F44336"/>
<path d="M45.9318 29.9091C45.3421 29.9091 44.8635 29.4305 44.8635 28.8409V18.159C44.8635 17.5694 45.3421 17.0908 45.9318 17.0908C46.5214 17.0908 47 17.5694 47 18.159V28.8409C46.9999 29.4305 46.5214 29.9091 45.9318 29.9091Z" fill="#F44336"/>
<path d="M1.06821 29.9091C0.478578 29.9091 0 29.4305 0 28.8409V18.159C0 17.5694 0.478578 17.0908 1.06821 17.0908C1.65785 17.0908 2.13643 17.5694 2.13643 18.159V28.8409C2.13633 29.4305 1.65785 29.9091 1.06821 29.9091Z" fill="#32C069"/>
<path d="M7.47733 38.4545C6.8877 38.4545 6.40912 37.9759 6.40912 37.3863V9.61362C6.40912 9.02399 6.8877 8.54541 7.47733 8.54541C8.06697 8.54541 8.54545 9.02399 8.54545 9.61362V37.3863C8.54545 37.9759 8.06697 38.4545 7.47733 38.4545Z" fill="#32C069"/>
<path d="M13.8864 46.9999C13.2968 46.9999 12.8182 46.5213 12.8182 45.9317V1.06812C12.8182 0.478582 13.2968 3.8147e-06 13.8864 3.8147e-06C14.4761 3.8147e-06 14.9547 0.478582 14.9547 1.06822V45.9318C14.9546 46.5214 14.4761 46.9999 13.8864 46.9999Z" fill="#32C069"/>
<path d="M20.2954 44.8636C19.7058 44.8636 19.2272 44.385 19.2272 43.7954V3.20454C19.2272 2.61491 19.7058 2.13633 20.2954 2.13633C20.8851 2.13633 21.3635 2.61491 21.3635 3.20454V43.7954C21.3635 44.385 20.8851 44.8636 20.2954 44.8636Z" fill="#32C069"/>
<path d="M26.7045 36.3182C26.1149 36.3182 25.6363 35.8396 25.6363 35.25V11.75C25.6363 11.1603 26.1149 10.6817 26.7045 10.6817C27.2942 10.6817 27.7728 11.1603 27.7728 11.75V35.25C27.7727 35.8396 27.2942 36.3182 26.7045 36.3182Z" fill="#32C069"/>
<path d="M33.1137 44.8636C32.524 44.8636 32.0454 44.385 32.0454 43.7954V3.20454C32.0454 2.61491 32.524 2.13633 33.1137 2.13633C33.7033 2.13633 34.1819 2.61491 34.1819 3.20454V43.7954C34.1818 44.385 33.7033 44.8636 33.1137 44.8636Z" fill="#32C069"/>
<path d="M39.5228 36.3182C38.9331 36.3182 38.4546 35.8396 38.4546 35.25V11.75C38.4546 11.1603 38.9331 10.6817 39.5228 10.6817C40.1124 10.6817 40.591 11.1603 40.591 11.75V35.25C40.5909 35.8396 40.1124 36.3182 39.5228 36.3182Z" fill="#32C069"/>
<path d="M45.9318 29.9091C45.3421 29.9091 44.8635 29.4305 44.8635 28.8409V18.159C44.8635 17.5694 45.3421 17.0908 45.9318 17.0908C46.5214 17.0908 47 17.5694 47 18.159V28.8409C46.9999 29.4305 46.5214 29.9091 45.9318 29.9091Z" fill="#32C069"/>
<path d="M53.0682 29.9091C52.4786 29.9091 52 29.4305 52 28.8409V18.159C52 17.5694 52.4786 17.0908 53.0682 17.0908C53.6578 17.0908 54.1364 17.5694 54.1364 18.159V28.8409C54.1363 29.4305 53.6578 29.9091 53.0682 29.9091Z" fill="#F44336"/>
<path d="M59.4773 38.4545C58.8877 38.4545 58.4091 37.9759 58.4091 37.3863V9.61362C58.4091 9.02399 58.8877 8.54541 59.4773 8.54541C60.067 8.54541 60.5454 9.02399 60.5454 9.61362V37.3863C60.5454 37.9759 60.067 38.4545 59.4773 38.4545Z" fill="#F44336"/>
<path d="M65.8865 46.9999C65.2968 46.9999 64.8182 46.5213 64.8182 45.9317V1.06812C64.8182 0.478582 65.2968 3.8147e-06 65.8865 3.8147e-06C66.4761 3.8147e-06 66.9547 0.478582 66.9547 1.06822V45.9318C66.9546 46.5214 66.4761 46.9999 65.8865 46.9999Z" fill="#F44336"/>
<path d="M72.2954 44.8636C71.7058 44.8636 71.2272 44.385 71.2272 43.7954V3.20454C71.2272 2.61491 71.7058 2.13633 72.2954 2.13633C72.8851 2.13633 73.3635 2.61491 73.3635 3.20454V43.7954C73.3635 44.385 72.8851 44.8636 72.2954 44.8636Z" fill="#F44336"/>
<path d="M78.7045 36.3182C78.1149 36.3182 77.6363 35.8396 77.6363 35.25V11.75C77.6363 11.1603 78.1149 10.6817 78.7045 10.6817C79.2942 10.6817 79.7728 11.1603 79.7728 11.75V35.25C79.7727 35.8396 79.2942 36.3182 78.7045 36.3182Z" fill="#F44336"/>
<path d="M85.1137 44.8636C84.524 44.8636 84.0454 44.385 84.0454 43.7954V3.20454C84.0454 2.61491 84.524 2.13633 85.1137 2.13633C85.7033 2.13633 86.1819 2.61491 86.1819 3.20454V43.7954C86.1818 44.385 85.7033 44.8636 85.1137 44.8636Z" fill="#F44336"/>
<path d="M91.5228 36.3182C90.9331 36.3182 90.4546 35.8396 90.4546 35.25V11.75C90.4546 11.1603 90.9331 10.6817 91.5228 10.6817C92.1124 10.6817 92.591 11.1603 92.591 11.75V35.25C92.5909 35.8396 92.1124 36.3182 91.5228 36.3182Z" fill="#F44336"/>
<path d="M97.9318 29.9091C97.3421 29.9091 96.8635 29.4305 96.8635 28.8409V18.159C96.8635 17.5694 97.3421 17.0908 97.9318 17.0908C98.5214 17.0908 99 17.5694 99 18.159V28.8409C98.9999 29.4305 98.5214 29.9091 97.9318 29.9091Z" fill="#F44336"/>
<path d="M53.0682 29.9091C52.4786 29.9091 52 29.4305 52 28.8409V18.159C52 17.5694 52.4786 17.0908 53.0682 17.0908C53.6578 17.0908 54.1364 17.5694 54.1364 18.159V28.8409C54.1363 29.4305 53.6578 29.9091 53.0682 29.9091Z" fill="#32C069"/>
<path d="M59.4773 38.4545C58.8877 38.4545 58.4091 37.9759 58.4091 37.3863V9.61362C58.4091 9.02399 58.8877 8.54541 59.4773 8.54541C60.067 8.54541 60.5454 9.02399 60.5454 9.61362V37.3863C60.5454 37.9759 60.067 38.4545 59.4773 38.4545Z" fill="#32C069"/>
<path d="M65.8865 46.9999C65.2968 46.9999 64.8182 46.5213 64.8182 45.9317V1.06812C64.8182 0.478582 65.2968 3.8147e-06 65.8865 3.8147e-06C66.4761 3.8147e-06 66.9547 0.478582 66.9547 1.06822V45.9318C66.9546 46.5214 66.4761 46.9999 65.8865 46.9999Z" fill="#32C069"/>
<path d="M72.2954 44.8636C71.7058 44.8636 71.2272 44.385 71.2272 43.7954V3.20454C71.2272 2.61491 71.7058 2.13633 72.2954 2.13633C72.8851 2.13633 73.3635 2.61491 73.3635 3.20454V43.7954C73.3635 44.385 72.8851 44.8636 72.2954 44.8636Z" fill="#32C069"/>
<path d="M78.7045 36.3182C78.1149 36.3182 77.6363 35.8396 77.6363 35.25V11.75C77.6363 11.1603 78.1149 10.6817 78.7045 10.6817C79.2942 10.6817 79.7728 11.1603 79.7728 11.75V35.25C79.7727 35.8396 79.2942 36.3182 78.7045 36.3182Z" fill="#32C069"/>
<path d="M85.1137 44.8636C84.524 44.8636 84.0454 44.385 84.0454 43.7954V3.20454C84.0454 2.61491 84.524 2.13633 85.1137 2.13633C85.7033 2.13633 86.1819 2.61491 86.1819 3.20454V43.7954C86.1818 44.385 85.7033 44.8636 85.1137 44.8636Z" fill="black"/>
<path d="M91.5228 36.3182C90.9331 36.3182 90.4546 35.8396 90.4546 35.25V11.75C90.4546 11.1603 90.9331 10.6817 91.5228 10.6817C92.1124 10.6817 92.591 11.1603 92.591 11.75V35.25C92.5909 35.8396 92.1124 36.3182 91.5228 36.3182Z" fill="black"/>
<path d="M97.9318 29.9091C97.3421 29.9091 96.8635 29.4305 96.8635 28.8409V18.159C96.8635 17.5694 97.3421 17.0908 97.9318 17.0908C98.5214 17.0908 99 17.5694 99 18.159V28.8409C98.9999 29.4305 98.5214 29.9091 97.9318 29.9091Z" fill="black"/>
<path d="M105.068 29.9091C104.479 29.9091 104 29.4305 104 28.8409V18.159C104 17.5694 104.479 17.0908 105.068 17.0908C105.658 17.0908 106.136 17.5694 106.136 18.159V28.8409C106.136 29.4305 105.658 29.9091 105.068 29.9091Z" fill="#F44336"/>
<path d="M111.477 38.4545C110.888 38.4545 110.409 37.9759 110.409 37.3863V9.61362C110.409 9.02399 110.888 8.54541 111.477 8.54541C112.067 8.54541 112.545 9.02399 112.545 9.61362V37.3863C112.545 37.9759 112.067 38.4545 111.477 38.4545Z" fill="#F44336"/>
<path d="M117.886 46.9999C117.297 46.9999 116.818 46.5213 116.818 45.9317V1.06812C116.818 0.478582 117.297 3.8147e-06 117.886 3.8147e-06C118.476 3.8147e-06 118.955 0.478582 118.955 1.06822V45.9318C118.955 46.5214 118.476 46.9999 117.886 46.9999Z" fill="#F44336"/>
<path d="M124.295 44.8636C123.706 44.8636 123.227 44.385 123.227 43.7954V3.20454C123.227 2.61491 123.706 2.13633 124.295 2.13633C124.885 2.13633 125.364 2.61491 125.364 3.20454V43.7954C125.364 44.385 124.885 44.8636 124.295 44.8636Z" fill="#F44336"/>
<path d="M130.705 36.3182C130.115 36.3182 129.636 35.8396 129.636 35.25V11.75C129.636 11.1603 130.115 10.6817 130.705 10.6817C131.294 10.6817 131.773 11.1603 131.773 11.75V35.25C131.773 35.8396 131.294 36.3182 130.705 36.3182Z" fill="#F44336"/>
<path d="M137.114 44.8636C136.524 44.8636 136.045 44.385 136.045 43.7954V3.20454C136.045 2.61491 136.524 2.13633 137.114 2.13633C137.703 2.13633 138.182 2.61491 138.182 3.20454V43.7954C138.182 44.385 137.703 44.8636 137.114 44.8636Z" fill="#F44336"/>
<path d="M143.523 36.3182C142.933 36.3182 142.455 35.8396 142.455 35.25V11.75C142.455 11.1603 142.933 10.6817 143.523 10.6817C144.112 10.6817 144.591 11.1603 144.591 11.75V35.25C144.591 35.8396 144.112 36.3182 143.523 36.3182Z" fill="#F44336"/>
<path d="M149.932 29.9091C149.342 29.9091 148.864 29.4305 148.864 28.8409V18.159C148.864 17.5694 149.342 17.0908 149.932 17.0908C150.521 17.0908 151 17.5694 151 18.159V28.8409C151 29.4305 150.521 29.9091 149.932 29.9091Z" fill="#F44336"/>
<path d="M105.068 29.9091C104.479 29.9091 104 29.4305 104 28.8409V18.159C104 17.5694 104.479 17.0908 105.068 17.0908C105.658 17.0908 106.136 17.5694 106.136 18.159V28.8409C106.136 29.4305 105.658 29.9091 105.068 29.9091Z" fill="black"/>
<path d="M111.477 38.4545C110.888 38.4545 110.409 37.9759 110.409 37.3863V9.61362C110.409 9.02399 110.888 8.54541 111.477 8.54541C112.067 8.54541 112.545 9.02399 112.545 9.61362V37.3863C112.545 37.9759 112.067 38.4545 111.477 38.4545Z" fill="black"/>
<path d="M117.886 46.9999C117.297 46.9999 116.818 46.5213 116.818 45.9317V1.06812C116.818 0.478582 117.297 3.8147e-06 117.886 3.8147e-06C118.476 3.8147e-06 118.955 0.478582 118.955 1.06822V45.9318C118.955 46.5214 118.476 46.9999 117.886 46.9999Z" fill="black"/>
<path d="M124.295 44.8636C123.706 44.8636 123.227 44.385 123.227 43.7954V3.20454C123.227 2.61491 123.706 2.13633 124.295 2.13633C124.885 2.13633 125.364 2.61491 125.364 3.20454V43.7954C125.364 44.385 124.885 44.8636 124.295 44.8636Z" fill="black"/>
<path d="M130.705 36.3182C130.115 36.3182 129.636 35.8396 129.636 35.25V11.75C129.636 11.1603 130.115 10.6817 130.705 10.6817C131.294 10.6817 131.773 11.1603 131.773 11.75V35.25C131.773 35.8396 131.294 36.3182 130.705 36.3182Z" fill="black"/>
<path d="M137.114 44.8636C136.524 44.8636 136.045 44.385 136.045 43.7954V3.20454C136.045 2.61491 136.524 2.13633 137.114 2.13633C137.703 2.13633 138.182 2.61491 138.182 3.20454V43.7954C138.182 44.385 137.703 44.8636 137.114 44.8636Z" fill="black"/>
<path d="M143.523 36.3182C142.933 36.3182 142.455 35.8396 142.455 35.25V11.75C142.455 11.1603 142.933 10.6817 143.523 10.6817C144.112 10.6817 144.591 11.1603 144.591 11.75V35.25C144.591 35.8396 144.112 36.3182 143.523 36.3182Z" fill="black"/>
<path d="M149.932 29.9091C149.342 29.9091 148.864 29.4305 148.864 28.8409V18.159C148.864 17.5694 149.342 17.0908 149.932 17.0908C150.521 17.0908 151 17.5694 151 18.159V28.8409C151 29.4305 150.521 29.9091 149.932 29.9091Z" fill="black"/>
<path d="M157.068 29.9091C156.479 29.9091 156 29.4305 156 28.8409V18.159C156 17.5694 156.479 17.0908 157.068 17.0908C157.658 17.0908 158.136 17.5694 158.136 18.159V28.8409C158.136 29.4305 157.658 29.9091 157.068 29.9091Z" fill="#F44336"/>
<path d="M163.477 38.4545C162.888 38.4545 162.409 37.9759 162.409 37.3863V9.61362C162.409 9.02399 162.888 8.54541 163.477 8.54541C164.067 8.54541 164.545 9.02399 164.545 9.61362V37.3863C164.545 37.9759 164.067 38.4545 163.477 38.4545Z" fill="#F44336"/>
<path d="M169.886 46.9999C169.297 46.9999 168.818 46.5213 168.818 45.9317V1.06812C168.818 0.478582 169.297 3.8147e-06 169.886 3.8147e-06C170.476 3.8147e-06 170.955 0.478582 170.955 1.06822V45.9318C170.955 46.5214 170.476 46.9999 169.886 46.9999Z" fill="#F44336"/>
<path d="M176.295 44.8636C175.706 44.8636 175.227 44.385 175.227 43.7954V3.20454C175.227 2.61491 175.706 2.13633 176.295 2.13633C176.885 2.13633 177.364 2.61491 177.364 3.20454V43.7954C177.364 44.385 176.885 44.8636 176.295 44.8636Z" fill="#F44336"/>
<path d="M182.705 36.3182C182.115 36.3182 181.636 35.8396 181.636 35.25V11.75C181.636 11.1603 182.115 10.6817 182.705 10.6817C183.294 10.6817 183.773 11.1603 183.773 11.75V35.25C183.773 35.8396 183.294 36.3182 182.705 36.3182Z" fill="#F44336"/>
<path d="M189.114 44.8636C188.524 44.8636 188.045 44.385 188.045 43.7954V3.20454C188.045 2.61491 188.524 2.13633 189.114 2.13633C189.703 2.13633 190.182 2.61491 190.182 3.20454V43.7954C190.182 44.385 189.703 44.8636 189.114 44.8636Z" fill="#F44336"/>
<path d="M195.523 36.3182C194.933 36.3182 194.455 35.8396 194.455 35.25V11.75C194.455 11.1603 194.933 10.6817 195.523 10.6817C196.112 10.6817 196.591 11.1603 196.591 11.75V35.25C196.591 35.8396 196.112 36.3182 195.523 36.3182Z" fill="#F44336"/>
<path d="M201.932 29.9091C201.342 29.9091 200.864 29.4305 200.864 28.8409V18.159C200.864 17.5694 201.342 17.0908 201.932 17.0908C202.521 17.0908 203 17.5694 203 18.159V28.8409C203 29.4305 202.521 29.9091 201.932 29.9091Z" fill="#F44336"/>
<path d="M157.068 29.9091C156.479 29.9091 156 29.4305 156 28.8409V18.159C156 17.5694 156.479 17.0908 157.068 17.0908C157.658 17.0908 158.136 17.5694 158.136 18.159V28.8409C158.136 29.4305 157.658 29.9091 157.068 29.9091Z" fill="black"/>
<path d="M163.477 38.4545C162.888 38.4545 162.409 37.9759 162.409 37.3863V9.61362C162.409 9.02399 162.888 8.54541 163.477 8.54541C164.067 8.54541 164.545 9.02399 164.545 9.61362V37.3863C164.545 37.9759 164.067 38.4545 163.477 38.4545Z" fill="black"/>
<path d="M169.886 46.9999C169.297 46.9999 168.818 46.5213 168.818 45.9317V1.06812C168.818 0.478582 169.297 3.8147e-06 169.886 3.8147e-06C170.476 3.8147e-06 170.955 0.478582 170.955 1.06822V45.9318C170.955 46.5214 170.476 46.9999 169.886 46.9999Z" fill="black"/>
<path d="M176.295 44.8636C175.706 44.8636 175.227 44.385 175.227 43.7954V3.20454C175.227 2.61491 175.706 2.13633 176.295 2.13633C176.885 2.13633 177.364 2.61491 177.364 3.20454V43.7954C177.364 44.385 176.885 44.8636 176.295 44.8636Z" fill="black"/>
<path d="M182.705 36.3182C182.115 36.3182 181.636 35.8396 181.636 35.25V11.75C181.636 11.1603 182.115 10.6817 182.705 10.6817C183.294 10.6817 183.773 11.1603 183.773 11.75V35.25C183.773 35.8396 183.294 36.3182 182.705 36.3182Z" fill="black"/>
<path d="M189.114 44.8636C188.524 44.8636 188.045 44.385 188.045 43.7954V3.20454C188.045 2.61491 188.524 2.13633 189.114 2.13633C189.703 2.13633 190.182 2.61491 190.182 3.20454V43.7954C190.182 44.385 189.703 44.8636 189.114 44.8636Z" fill="black"/>
<path d="M195.523 36.3182C194.933 36.3182 194.455 35.8396 194.455 35.25V11.75C194.455 11.1603 194.933 10.6817 195.523 10.6817C196.112 10.6817 196.591 11.1603 196.591 11.75V35.25C196.591 35.8396 196.112 36.3182 195.523 36.3182Z" fill="black"/>
<path d="M201.932 29.9091C201.342 29.9091 200.864 29.4305 200.864 28.8409V18.159C200.864 17.5694 201.342 17.0908 201.932 17.0908C202.521 17.0908 203 17.5694 203 18.159V28.8409C203 29.4305 202.521 29.9091 201.932 29.9091Z" fill="black"/>
<path d="M209.068 29.9091C208.479 29.9091 208 29.4305 208 28.8409V18.159C208 17.5694 208.479 17.0908 209.068 17.0908C209.658 17.0908 210.136 17.5694 210.136 18.159V28.8409C210.136 29.4305 209.658 29.9091 209.068 29.9091Z" fill="#F44336"/>
<path d="M215.477 38.4545C214.888 38.4545 214.409 37.9759 214.409 37.3863V9.61362C214.409 9.02399 214.888 8.54541 215.477 8.54541C216.067 8.54541 216.545 9.02399 216.545 9.61362V37.3863C216.545 37.9759 216.067 38.4545 215.477 38.4545Z" fill="#F44336"/>
<path d="M221.886 46.9999C221.297 46.9999 220.818 46.5213 220.818 45.9317V1.06812C220.818 0.478582 221.297 3.8147e-06 221.886 3.8147e-06C222.476 3.8147e-06 222.955 0.478582 222.955 1.06822V45.9318C222.955 46.5214 222.476 46.9999 221.886 46.9999Z" fill="#F44336"/>
<path d="M228.295 44.8636C227.706 44.8636 227.227 44.385 227.227 43.7954V3.20454C227.227 2.61491 227.706 2.13633 228.295 2.13633C228.885 2.13633 229.364 2.61491 229.364 3.20454V43.7954C229.364 44.385 228.885 44.8636 228.295 44.8636Z" fill="#F44336"/>
<path d="M234.705 36.3182C234.115 36.3182 233.636 35.8396 233.636 35.25V11.75C233.636 11.1603 234.115 10.6817 234.705 10.6817C235.294 10.6817 235.773 11.1603 235.773 11.75V35.25C235.773 35.8396 235.294 36.3182 234.705 36.3182Z" fill="#F44336"/>
<path d="M241.114 44.8636C240.524 44.8636 240.045 44.385 240.045 43.7954V3.20454C240.045 2.61491 240.524 2.13633 241.114 2.13633C241.703 2.13633 242.182 2.61491 242.182 3.20454V43.7954C242.182 44.385 241.703 44.8636 241.114 44.8636Z" fill="#F44336"/>
<path d="M247.523 36.3182C246.933 36.3182 246.455 35.8396 246.455 35.25V11.75C246.455 11.1603 246.933 10.6817 247.523 10.6817C248.112 10.6817 248.591 11.1603 248.591 11.75V35.25C248.591 35.8396 248.112 36.3182 247.523 36.3182Z" fill="#F44336"/>
<path d="M253.932 29.9091C253.342 29.9091 252.864 29.4305 252.864 28.8409V18.159C252.864 17.5694 253.342 17.0908 253.932 17.0908C254.521 17.0908 255 17.5694 255 18.159V28.8409C255 29.4305 254.521 29.9091 253.932 29.9091Z" fill="#F44336"/>
<path d="M209.068 29.9091C208.479 29.9091 208 29.4305 208 28.8409V18.159C208 17.5694 208.479 17.0908 209.068 17.0908C209.658 17.0908 210.136 17.5694 210.136 18.159V28.8409C210.136 29.4305 209.658 29.9091 209.068 29.9091Z" fill="black"/>
<path d="M215.477 38.4545C214.888 38.4545 214.409 37.9759 214.409 37.3863V9.61362C214.409 9.02399 214.888 8.54541 215.477 8.54541C216.067 8.54541 216.545 9.02399 216.545 9.61362V37.3863C216.545 37.9759 216.067 38.4545 215.477 38.4545Z" fill="black"/>
<path d="M221.886 46.9999C221.297 46.9999 220.818 46.5213 220.818 45.9317V1.06812C220.818 0.478582 221.297 3.8147e-06 221.886 3.8147e-06C222.476 3.8147e-06 222.955 0.478582 222.955 1.06822V45.9318C222.955 46.5214 222.476 46.9999 221.886 46.9999Z" fill="black"/>
<path d="M228.295 44.8636C227.706 44.8636 227.227 44.385 227.227 43.7954V3.20454C227.227 2.61491 227.706 2.13633 228.295 2.13633C228.885 2.13633 229.364 2.61491 229.364 3.20454V43.7954C229.364 44.385 228.885 44.8636 228.295 44.8636Z" fill="black"/>
<path d="M234.705 36.3182C234.115 36.3182 233.636 35.8396 233.636 35.25V11.75C233.636 11.1603 234.115 10.6817 234.705 10.6817C235.294 10.6817 235.773 11.1603 235.773 11.75V35.25C235.773 35.8396 235.294 36.3182 234.705 36.3182Z" fill="black"/>
<path d="M241.114 44.8636C240.524 44.8636 240.045 44.385 240.045 43.7954V3.20454C240.045 2.61491 240.524 2.13633 241.114 2.13633C241.703 2.13633 242.182 2.61491 242.182 3.20454V43.7954C242.182 44.385 241.703 44.8636 241.114 44.8636Z" fill="black"/>
<path d="M247.523 36.3182C246.933 36.3182 246.455 35.8396 246.455 35.25V11.75C246.455 11.1603 246.933 10.6817 247.523 10.6817C248.112 10.6817 248.591 11.1603 248.591 11.75V35.25C248.591 35.8396 248.112 36.3182 247.523 36.3182Z" fill="black"/>
<path d="M253.932 29.9091C253.342 29.9091 252.864 29.4305 252.864 28.8409V18.159C252.864 17.5694 253.342 17.0908 253.932 17.0908C254.521 17.0908 255 17.5694 255 18.159V28.8409C255 29.4305 254.521 29.9091 253.932 29.9091Z" fill="black"/>
</svg>
